<svg xmlns="http://www.w3.org/2000/svg" xmlns:xlink="http://www.w3.org/1999/xlink" viewBox="794.7 121.8 1143.7 595"><g transform="matrix(1.33333 0 0 -1.33333 0 1152)"><defs><path id="a" d="M161.6-26.9h1728v1152h-1728z"/><path id="c" d="M1044.657 573.416v-53.9h37.4v-43.1h-37.3v-68.1c0-22.7 4.8-33.1 20.5-33.1 6.5 0 11.6.8 15.4 1.5l.3-44.2c-6.9-3.1-19.2-5.4-33.9-5.4-16.8 0-30.8 6.9-39 16.5-9.6 11.2-14.4 29.2-14.4 55.8v77h-22.3v43.1h22.3v40.8z"/></defs><clipPath id="b"><use xlink:href="#a"/></clipPath><g clip-path="url(#b)"><g fill="#110f0d"><path d="M596.016 590.734h51.7v-114.7h1c5.1 10 10.6 19.2 15.8 28.5l52.4 86.2h64l-76.3-110.5 80.5-148.9h-61l-56.5 112-19.9-27.3v-84.7h-51.7zm304.107-143.91c0 14.2-5.5 38.1-29.4 38.1-21.9 0-30.8-22.3-32.2-38.1zm-61.3-40c1.7-24.2 22.9-35.8 47.3-35.8 17.8 0 32.2 2.7 46.2 7.7l6.8-39.6c-17.1-7.7-38-11.9-60.6-11.9-56.8 0-89.4 37.3-89.4 96.2 0 47.7 26.4 100.4 84.6 100.4 54.1 0 74.7-47.3 74.7-93.9 0-10-1-18.9-1.7-23.1z"/><use xlink:href="#c"/><path d="M1177.19 573.416v-53.9h37.4v-43.1h-37.3v-68.1c0-22.7 4.8-33.1 20.5-33.1 6.5 0 11.6.8 15.4 1.5l.3-44.2c-6.9-3.1-19.2-5.4-33.9-5.4-16.8 0-30.8 6.9-39 16.5-9.6 11.2-14.4 29.2-14.4 55.8v77h-22.3v43.1h22.3v40.8zm109.929-148.528c0-30 10.6-55.8 33.9-55.8 22.9 0 33.6 25.4 33.6 55.8 0 26.9-7.9 57.3-33.6 57.3s-33.9-30.8-33.9-57.3m121.3.8c0-70.4-47.9-98.5-89.7-98.5-47.6 0-85.3 36.6-85.3 98.1 0 63.5 40.1 98.5 89.4 98.5 50.3 0 85.6-37.4 85.6-98.1"/></g><path fill="#44c0b2" d="M1362.383 614.956c-.3.5-.7 1-1 1.4 4.4 36.2 55.8 38.7 55.8 70.4 0-21.7-47.3-13.3-74.4-30.9-.9 4.9-1.2 10.1-1.1 15.9 0 48.7 47.6 67.4 47.6 101.4 0-34.1-79-41.1-88.4-98.7-8.9 7.4-18.4 12.4-29.7 12.4-18.4 0-27.9-18.2-27.9-18.2s16.4 5.3 21.9-13.8c4.6-16.2 17.4-86.1 189-68.1 0 0-52.6 4.3-91.8 28.2m-108.97-59.706c-.1.2-.2.3-.3.5 1.6 13.3 19.9 14.7 21 25.7-1.5-6.9-18.3-4.3-28.1-10.7-.3 1.9-.5 3.8-.4 6 0 18.5 18.1 25.6 18.1 38.5 0-13-30-15.6-33.5-37.5-3.4 2.8-7 4.7-11.3 4.7-7 0-10.6-6.9-10.6-6.9s6.2 2 8.3-5.2c1.8-6.2 6.6-32.7 71.7-25.8 0 0-20 1.6-34.9 10.7m20.71 26.182c.1.3.1.7.1 1.1 0-.4 0-.8-.1-1.1"/></g></g></svg>